<svg width="54" height="54" fill="none" xmlns="http://www.w3.org/2000/svg"><path fill-rule="evenodd" clip-rule="evenodd" d="M15.869.162C18.748.029 19.666 0 27 0s8.252.032 11.129.162c2.877.13 4.84.59 6.559 1.254 1.799.68 3.43 1.743 4.78 3.118a13.188 13.188 0 013.113 4.779c.668 1.718 1.124 3.681 1.257 6.553C53.971 18.75 54 19.668 54 27c0 7.334-.032 8.252-.162 11.131-.13 2.872-.59 4.836-1.257 6.554a13.244 13.244 0 01-3.112 4.784 13.24 13.24 0 01-4.782 3.112c-1.718.668-3.681 1.124-6.553 1.257-2.882.133-3.8.162-11.134.162-7.334 0-8.252-.032-11.131-.162-2.872-.13-4.836-.59-6.554-1.257a13.248 13.248 0 01-4.784-3.112 13.235 13.235 0 01-3.115-4.782C.751 42.97.295 41.007.162 38.135.029 35.25 0 34.332 0 27c0-7.334.032-8.252.162-11.129.13-2.877.59-4.84 1.254-6.558A13.245 13.245 0 014.534 4.53a13.235 13.235 0 014.779-3.115C11.03.751 12.994.295 15.866.162h.003zm22.041 4.86c-2.847-.13-3.701-.157-10.91-.157s-8.063.027-10.91.157c-2.634.12-4.063.56-5.015.93-1.26.491-2.16 1.073-3.105 2.018a8.375 8.375 0 00-2.018 3.105c-.37.952-.81 2.38-.93 5.015-.13 2.847-.157 3.701-.157 10.91s.027 8.063.157 10.91c.12 2.634.56 4.063.93 5.015A8.382 8.382 0 007.97 46.03a8.381 8.381 0 003.105 2.018c.952.37 2.38.81 5.015.93 2.847.13 3.698.157 10.91.157s8.063-.027 10.91-.157c2.634-.12 4.063-.56 5.015-.93 1.26-.491 2.16-1.073 3.105-2.018a8.382 8.382 0 002.018-3.105c.37-.952.81-2.38.93-5.014.13-2.848.157-3.702.157-10.911s-.027-8.063-.157-10.91c-.12-2.634-.56-4.063-.93-5.015-.491-1.26-1.073-2.16-2.018-3.105a8.377 8.377 0 00-3.105-2.018c-.952-.37-2.38-.81-5.014-.93zM23.551 35.323a9.006 9.006 0 009.819-14.692 9.008 9.008 0 10-9.819 14.692zm-6.364-18.136a13.879 13.879 0 1119.627 19.628 13.879 13.879 0 01-19.627-19.628zm26.769-1.998a3.281 3.281 0 10-4.503-4.774 3.281 3.281 0 004.503 4.774z" fill="#000"/></svg>