<svg width="56" height="55" fill="none" xmlns="http://www.w3.org/2000/svg"><g clip-path="url(#clip0)"><path fill-rule="evenodd" clip-rule="evenodd" d="M55.5 27.5C55.5 42.687 43.187 55 28 55S.5 42.687.5 27.5 12.813 0 28 0s27.5 12.313 27.5 27.5zm-26.515-7.198c-2.674 1.111-8.02 3.415-16.037 6.907-1.301.518-1.984 1.024-2.046 1.52-.105.838.944 1.168 2.37 1.615.194.062.396.124.602.192 1.405.456 3.293.99 4.274 1.011.892.018 1.886-.348 2.984-1.1 7.489-5.058 11.355-7.613 11.598-7.668.172-.039.41-.09.57.055.161.142.145.413.129.486-.105.442-4.217 4.267-6.348 6.247a65.045 65.045 0 00-1.23 1.155c-.216.222-.436.435-.647.64-1.306 1.255-2.282 2.2.055 3.74 1.123.74 2.021 1.352 2.918 1.961.978.667 1.954 1.332 3.22 2.161.32.211.627.429.927.642 1.14.813 2.164 1.542 3.429 1.428.733-.07 1.494-.759 1.879-2.82.91-4.871 2.702-15.422 3.117-19.772a4.83 4.83 0 00-.046-1.081 1.16 1.16 0 00-.395-.745c-.327-.268-.836-.326-1.065-.321-1.034.018-2.62.57-10.258 3.747z" fill="#000"/></g><defs><clipPath id="clip0"><path fill="#fff" transform="translate(.5)" d="M0 0h55v55H0z"/></clipPath></defs></svg>