<svg width="25" height="24" fill="none" xmlns="http://www.w3.org/2000/svg"><path d="M22.13 16.45H8.174l.701-1.427 11.644-.02a.814.814 0 00.802-.671l1.612-9.026a.814.814 0 00-.8-.958L7.32 4.298l-.126-.595a.833.833 0 00-.811-.656H2.762a.827.827 0 100 1.655h2.95l.554 2.63 1.361 6.592-1.753 2.862a.82.82 0 00-.07.862c.14.28.424.455.738.455h1.472a2.407 2.407 0 001.922 3.85 2.407 2.407 0 001.922-3.85h3.776a2.407 2.407 0 001.922 3.85 2.407 2.407 0 001.921-3.85h2.656c.454 0 .827-.37.827-.827a.83.83 0 00-.83-.825zM7.666 5.93l13.495.044-1.322 7.402-10.6.019L7.665 5.93zm2.27 14.36a.742.742 0 01-.74-.74c0-.409.333-.741.74-.741a.742.742 0 01.525 1.264.74.74 0 01-.524.217zm7.62 0a.742.742 0 01-.74-.74c0-.409.333-.741.74-.741a.742.742 0 01.524 1.264.74.74 0 01-.524.217z" fill="#000"/></svg>